<svg xmlns="http://www.w3.org/2000/svg" version="1.1" xmlns:xlink="http://www.w3.org/1999/xlink" xmlns:svgjs="http://svgjs.com/svgjs" width="512" height="512" x="0" y="0" viewBox="0 0 512 512" style="enable-background:new 0 0 512 512" xml:space="preserve" class=""><g transform="matrix(-1,-1.2246467991473532e-16,1.2246467991473532e-16,-1,517,512)"><linearGradient id="a" gradientTransform="matrix(1 0 0 -1 0 -11082)" gradientUnits="userSpaceOnUse" x1="0" x2="512" y1="-11338" y2="-11338"><stop offset="0" stop-color="#31d8ff"></stop><stop offset="1" stop-color="#ff80ff"></stop></linearGradient><path d="m512 256c0 141.386719-114.613281 256-256 256s-256-114.613281-256-256 114.613281-256 256-256 256 114.613281 256 256zm0 0" fill="url(#a)" data-original="url(#a)" class=""></path><path d="m190.839844 441c-3.902344 0-7.800782-1.511719-10.738282-4.527344-5.785156-5.929687-5.664062-15.425781.265626-21.210937l163.3125-159.261719-163.3125-159.261719c-5.929688-5.785156-6.050782-15.28125-.265626-21.210937 5.785157-5.929688 15.28125-6.050782 21.210938-.265625l174.324219 170c2.894531 2.824219 4.523437 6.695312 4.523437 10.738281 0 4.046875-1.632812 7.917969-4.523437 10.738281l-174.324219 170c-2.917969 2.84375-6.695312 4.261719-10.472656 4.261719zm0 0" fill="#ffffff" data-original="#ffffff"></path></g></svg>